<svg width="30" height="14" viewBox="0 0 30 14" fill="none" xmlns="http://www.w3.org/2000/svg">
<path fill-rule="evenodd" clip-rule="evenodd" d="M1.5 0.875034C2.12132 0.875034 2.625 1.37871 2.625 2.00003V9.32019C3.38599 8.45225 4.3341 7.441 5.41989 6.4276C8.25482 3.78166 12.2852 0.875034 16.5 0.875034C22.2097 0.875034 25.5347 3.76522 27.3838 6.64168C28.297 8.0622 28.8505 9.47425 29.1763 10.5268C29.3397 11.0549 29.4475 11.4978 29.5151 11.8131C29.5489 11.971 29.5727 12.0973 29.5885 12.1869C29.5964 12.2317 29.6023 12.2674 29.6064 12.2933L29.6113 12.3247L29.6128 12.3347L29.6133 12.3383L29.6135 12.3397C29.6136 12.3404 29.6137 12.3409 28.5 12.5L29.6137 12.3409C29.7016 12.956 29.2742 13.5259 28.6591 13.6137C28.0448 13.7015 27.4756 13.2752 27.3866 12.6614C27.3866 12.6612 27.3866 12.661 27.3865 12.6608L27.3864 12.6602L27.3864 12.6601L27.3863 12.6591L27.3843 12.6466C27.3821 12.6327 27.3783 12.6094 27.3727 12.5773C27.3613 12.5131 27.3427 12.4139 27.315 12.2846C27.2595 12.0257 27.1681 11.6483 27.0269 11.1921C26.7433 10.2758 26.2655 9.06287 25.4912 7.85839C23.9653 5.48485 21.2903 3.12503 16.5 3.12503C13.2148 3.12503 9.74518 5.46841 6.95511 8.07247C5.68703 9.25601 4.6123 10.4429 3.82495 11.375H12C12.6213 11.375 13.125 11.8787 13.125 12.5C13.125 13.1214 12.6213 13.625 12 13.625H1.5C0.87868 13.625 0.375 13.1214 0.375 12.5V2.00003C0.375 1.37871 0.87868 0.875034 1.5 0.875034Z" fill="#D8AE5F"/>
</svg>
