<svg width="49" height="50" viewBox="0 0 49 50" fill="none" xmlns="http://www.w3.org/2000/svg">
<path d="M44.5697 1H38.4302C36.5358 1 35 2.5357 35 4.4302V10.5697C35 12.4642 36.5358 14 38.4302 14H44.5697C46.4642 14 48 12.4642 48 10.5697V4.4302C48 2.5357 46.4642 1 44.5697 1Z" fill="black"/>
<path d="M20.5268 14.3659H25.9181C28.149 14.4927 30.2712 15.3716 31.9384 16.8594L32.1406 17.0841C33.6361 18.7464 34.5162 20.8714 34.634 23.1044V28.4732C34.634 29.4085 35.0056 30.3056 35.667 30.967C36.3284 31.6284 37.2255 32 38.1609 32H44.4732C45.4085 32 46.3056 31.6284 46.967 30.967C47.6284 30.3056 48 29.4085 48 28.4732V22.1609C48 21.2255 47.6284 20.3285 46.967 19.6671C46.3056 19.0057 45.4085 18.6341 44.4732 18.6341H39.1043C36.8714 18.5162 34.7464 17.6361 33.084 16.1406L32.8594 15.9384C31.3686 14.2731 30.4892 12.1499 30.3659 9.9181V4.5268C30.3659 3.5915 29.9944 2.6944 29.333 2.033C28.6715 1.3716 27.7745 1 26.8391 1H20.5268C19.5914 1 18.6944 1.3716 18.033 2.033C17.3716 2.6944 17 3.5915 17 4.5268V10.8392C17 11.7745 17.3716 12.6715 18.033 13.3329C18.6944 13.9943 19.5914 14.3659 20.5268 14.3659Z" fill="black"/>
<path d="M45.4841 36.4669H40.1435C37.9204 36.3226 35.814 35.4003 34.1798 33.8556L33.579 33.2426C32.0976 31.5622 31.2257 29.4142 31.109 27.1571V21.7075C31.1031 20.7639 30.7332 19.8606 30.0793 19.1933C29.4253 18.526 28.5401 18.1485 27.6153 18.1426H22.2747C20.0699 18.0479 17.9642 17.182 16.3111 15.6903L15.7103 15.0772C14.2288 13.3969 13.357 11.2489 13.2402 8.9918V3.565C13.2402 2.6195 12.8721 1.7127 12.217 1.0441C11.5618 0.375602 10.6732 0 9.7466 0H3.4936C2.5671 0 1.6784 0.375602 1.0233 1.0441C0.3681 1.7127 0 2.6195 0 3.565V9.9455C0 10.891 0.3681 11.7978 1.0233 12.4663C1.6784 13.1349 2.5671 13.5105 3.4936 13.5105H8.812C11.0577 13.6153 13.1977 14.5144 14.8647 16.0536L15.4655 16.6667C16.9423 18.35 17.8134 20.4962 17.9355 22.752V28.2017C17.9413 29.1453 18.3113 30.0486 18.9652 30.7158C19.6191 31.3831 20.5044 31.7606 21.4291 31.7666H26.7697C28.9572 31.9063 31.0346 32.7942 32.6667 34.287L33.2675 34.9001C34.7443 36.5834 35.6154 38.7297 35.7375 40.9855V46.4351C35.7433 47.3788 36.1133 48.282 36.7672 48.9493C37.4211 49.6166 38.3064 49.994 39.2311 50H45.5063C46.4311 49.994 47.3164 49.6166 47.9703 48.9493C48.6242 48.282 48.9942 47.3788 49 46.4351V40.0318C48.9941 39.0843 48.6211 38.1775 47.9624 37.5096C47.3037 36.8417 46.4127 36.4668 45.4841 36.4669Z" fill="black"/>
<path d="M10.3059 36H3.6941C1.6539 36 0 37.5358 0 39.4303V45.5698C0 47.4643 1.6539 49 3.6941 49H10.3059C12.3461 49 14 47.4643 14 45.5698V39.4303C14 37.5358 12.3461 36 10.3059 36Z" fill="black"/>
<path d="M27.4732 35.634H22.1043C19.8714 35.5161 17.7464 34.6361 16.084 33.1406L15.8594 32.9384C14.3591 31.2613 13.4791 29.1206 13.3659 26.8732V21.4819C13.3548 20.5735 12.9936 19.7044 12.3575 19.0557C11.7214 18.4071 10.8595 18.0289 9.9514 18H3.5268C2.5914 18 1.6944 18.3716 1.033 19.033C0.371597 19.6944 0 20.5914 0 21.5268V27.8391C0 28.7745 0.371597 29.6715 1.033 30.333C1.6944 30.9944 2.5914 31.3659 3.5268 31.3659H8.9181C11.149 31.4927 13.2712 32.3716 14.9384 33.8594L15.1406 34.084C16.6361 35.7464 17.5162 37.8714 17.634 40.1043V45.4731C17.634 45.9382 17.726 46.3986 17.9046 46.8279C18.0833 47.2573 18.3451 47.6471 18.675 47.9749C19.0048 48.3027 19.3963 48.562 19.8268 48.7379C20.2573 48.9138 20.7183 49.0029 21.1833 48.9999H27.4732C28.4085 48.9999 29.3056 48.6284 29.967 47.967C30.6284 47.3056 31 46.4085 31 45.4731V39.1608C31 38.2255 30.6284 37.3284 29.967 36.667C29.3056 36.0056 28.4085 35.634 27.4732 35.634Z" fill="black"/>
</svg>
