<svg width="35" height="30" viewBox="0 0 35 30" fill="none" xmlns="http://www.w3.org/2000/svg">
<path fill-rule="evenodd" clip-rule="evenodd" d="M20.075 6.59971C22.2001 5.00592 23.6925 3.89031 24.8569 3.25747C26.0287 2.62068 26.5238 2.66531 26.8385 2.82266C27.1532 2.98 27.486 3.34933 27.6796 4.66882C27.8697 5.96432 27.8749 7.79862 27.875 10.4041C27.875 10.4359 27.875 10.4677 27.875 10.4997L27.875 16.4997C27.875 16.5365 27.875 16.5732 27.875 16.6098C27.8749 19.2076 27.8694 21.0375 27.6796 22.3306C27.486 23.6501 27.1532 24.0194 26.8385 24.1768C26.5238 24.3341 26.0287 24.3787 24.8569 23.7419C23.6925 23.1091 22.2001 21.9935 20.075 20.3997L18.125 18.9372L18.125 8.06221L20.075 6.59971ZM30.1163 19.014C30.0996 20.4548 30.0503 21.6724 29.9058 22.6573C29.6848 24.1631 29.1884 25.5174 27.8448 26.1892C26.5011 26.8611 25.1198 26.4456 23.7826 25.7189C22.4555 24.9977 20.8316 23.7797 18.8053 22.2599L18.725 22.1997L16.6253 20.6249L13.625 20.6249L13.625 26.2501C13.625 28.1141 12.114 29.6251 10.25 29.6251C8.38604 29.6251 6.875 28.1141 6.875 26.2501L6.875 20.5366C3.47451 19.9972 0.874998 17.0522 0.874998 13.4999C0.874998 9.56491 4.06497 6.37494 8 6.37494L16.6247 6.37494L18.725 4.79971L18.8053 4.73951L18.8053 4.73949L18.8053 4.73949L18.8053 4.73945C20.8317 3.21966 22.4555 2.00173 23.7826 1.28054C25.1198 0.553812 26.5011 0.138359 27.8448 0.810195C29.1884 1.48203 29.6848 2.8363 29.9058 4.34215C30.0503 5.32707 30.0996 6.54462 30.1163 7.98552C32.6882 8.50336 34.625 10.7754 34.625 13.4998C34.625 16.2241 32.6882 18.4962 30.1163 19.014ZM30.125 16.6827C31.4358 16.2194 32.375 14.9692 32.375 13.4998C32.375 12.0303 31.4358 10.7801 30.125 10.3168C30.125 10.3443 30.125 10.3718 30.125 10.3994L30.125 10.3994L30.125 10.4997L30.125 16.4997L30.125 16.6L30.125 16.6C30.125 16.6277 30.125 16.6552 30.125 16.6827ZM15.875 8.62494L8 8.62494C5.30761 8.62494 3.125 10.8075 3.125 13.4999C3.125 16.1923 5.30761 18.3749 8 18.3749L15.875 18.3749L15.875 8.62494ZM9.125 20.6251L9.125 26.2501C9.125 26.8714 9.62868 27.3751 10.25 27.3751C10.8713 27.3751 11.375 26.8714 11.375 26.2501L11.375 20.6251L9.125 20.6251Z" fill="#D8AE5F"/>
</svg>
